<svg xmlns="http://www.w3.org/2000/svg" width="231.24" height="210.163" viewBox="0 0 231.24 210.163">
  <g id="bullies" transform="translate(354.98 276.821)">
    <path id="path893" d="M-322.172-151.578c-20.4,70.95-14.96,140.379-4.462,209.511l63.589-.689C-292.611,2.251-314.857-63.594-322.172-151.578Z" transform="translate(-3.576 -125.105)" fill="#e6e6e6" stroke="#000" stroke-width="1"/>
    <path id="path895" d="M-129.644-151.578c20.4,70.95,14.96,140.379,4.462,209.511l-63.589-.689C-159.2,2.251-136.959-63.6-129.644-151.578Z" transform="translate(-31.643 -125.105)" fill="#e6e6e6" stroke="#000" stroke-width="1"/>
    <path id="path897" d="M-330.211,57.934l-24.543-12.405" transform="translate(0 -126.094)" fill="none" stroke="#000" stroke-width="1"/>
    <path id="path899" d="M-245.864,57.245h46.209l63.589.689,32.441-15.162" transform="translate(-22.377 -125.094)" fill="none" stroke="#000" stroke-width="1"/>
    <g id="money-7" transform="translate(-295.338 -275.695)">
      <path id="path2113" d="M-18.327-48.75a308.433,308.433,0,0,0-32.6,1.844V8.875a308.528,308.528,0,0,1,32.6-1.813l.59.018V-48.746l-.59,0Zm4.69.1V7.2q5.446.069,10.877.328V-48.24q-5.427-.3-10.877-.408Zm14.978.563V7.748a296.916,296.916,0,0,1,37.093,4.766V-43.352A297.089,297.089,0,0,0,1.341-48.086ZM-55.026-46.5A284.3,284.3,0,0,0-88.215-40.48v55.9A284.4,284.4,0,0,1-55.026,9.414Zm97.561,4.057v55.83a258.44,258.44,0,0,1,29.7,7.994V-34.478a258.77,258.77,0,0,0-29.7-7.963Z" transform="translate(99.361 48.75)" fill="none"/>
      <ellipse id="path2319" cx="51.669" cy="63.84" rx="51.669" ry="63.84" transform="translate(0 62.536)" fill="#800013" stroke="#fff" stroke-width="2"/>
      <path id="path2321" d="M-226.95,257.776c-27.006-27.8-38.374-66.453-47.725-109.648" transform="translate(312.146 -82.937)" fill="none" stroke="#fff" stroke-linecap="round" stroke-width="2"/>
      <path id="path2323" d="M-311.225,173.469c9.443,36.752,22.321,71.219,45.359,98.927" transform="translate(319.114 -82.937)" fill="none" stroke="#fff" stroke-linecap="round" stroke-width="2"/>
      <path id="path2325" d="M-308.788,245.106c19.816-51.481,53.486-55.053,86.378-66.764" transform="translate(318.649 -82.937)" fill="none" stroke="#fff" stroke-linecap="round" stroke-width="2"/>
      <path id="path2327" d="M-297.58,257.289c27.873-42.625,55.745-41.994,83.618-51.656" transform="translate(316.512 -82.937)" fill="none" stroke="#fff" stroke-linecap="round" stroke-width="2"/>
    </g>
  </g>
</svg>
