<svg xmlns="http://www.w3.org/2000/svg" width="233.014" height="205.377" viewBox="0 0 233.014 205.377">
  <g id="foxes" transform="translate(387.836 101.957)">
    <path id="path861" d="M-127.482-107.551-168.85-64.82l51.5-4.824,27.016,58.58,7.6,18.607L-83.58,42,1.268,97.826-56.986,29.6-27.86-23.471,8.444-3.484l16.5-11.658L28.284-2.105,17.309,34.422,54.456,1.34,32.312-20.352l4.414-3.119,27.438,6.893L54.878-53.105,16.887-78.6l-60.48,13.619.008-.1-.048-.566L-43.7-66.3l-.024-.566-.191-.391-.251-.352-.215-.215-.227-.156-.167-.352-.191-.176-.227-.078-.215-.391-.251-.332-.215-.312-.227-.273-.311-.117-.227-.332-.144-.43.1-.566.227-.391.239-.293.347-.273.371-.117.335.039.395.078.49-.078.3-.2.168-.293.167-.43v-.566l-.072-.273-.191-.449-.179-.2-.287-.371-.251-.234-.335-.156h-.347l-.419.156-.467.234-.359.1-.323.039-.275.234-.263.117-.072.41h-.227l-.167.352-.048.234-.2.449-.191.469-.144.566-.024.488-.1.547.024.605.12.527.167.391.168.488.275.273.3.273.215.039.323.137.215.2.347.234.311.313.443.371.156.234.407.332.347.2.251.508.12.488v.645l0,.09-3.577.807-.068-.174v-.566l.024-.488.1-.43-.1-.332-.2.059-.168.391-.1.352-.132.566v.566l.057.187L-53.2-62.822l.039-.07-.024-.156H-53.4l-.347.117-.347.215-.311.078-.371.156h-.395l-.335-.234-.275-.215-.514-.43-.263-.41-.514-.918-.275-.547-.144-.449-.048-.84.12-.449.263-.156.3-.039.443.078.562-.039.347-.156.419-.234.359-.293.514-.2.562-.078.514-.273.419-.293.347-.312.215-.527v-.586l-.12-.684-.191-.41-.347-.508-.371-.371-1.424-1.152-.514-.234-.634-.117-.467.039h-.562l-.443.117-.359.313-.347.488-.3.684-.168.039-.215.313-.108.234-.12.488-.12.43-.1.645-.1.762-.036.723.06.645.167.84.263,1.035.3,1.191.144.176.2.469.239.371.323.351.467.645.465.494-.007,0-2.8,3.387-.066-.193-.165-.2-.24-.094-.236.018-.23-.025-.278.09-.3.021-.288-.035-.358-.059-.3-.02-.408-.055-.274-.09-.263-.051-.194.027-.3-.283-.49.035-.316-.1-.374-.084-.212.029-.013-.525-.1-.463.053-.584-.1-.52-.263-.977-.059-.59-.059-.617.014-.43-.031-.523.023-.416-.049-.549-.02-.455.031-.4-.043-.383-.134-.254-.108-.213-.488-.2-.293.117-.213.266-.2.359-.164.523-.054.5.038.48-.017.318.11.324.071.424.212.317.105.476.105.449.124.557.065.521.047.467.115.49.12.336.084.631.166.514-.494.186-.5-.115-.444-.162-.264.24-.717-.2-.284-.16-.224-.123-.309-.115-.306-.09-.2-.193-.3-.047-.211.057-.246.266-.138.244.037.426.16.293.178.057.287-.047.559.016.256.064.245-.031.182.166.307.09.394.137.347-.01.221.066.524-.037.613.094.54.225.17.68,0,.443.065.52-.011.568.074.56.087.395.031.523.081.52.15.543.048.522.012.441.067.4-4.789,5.789.09-.4.167-.488.084-.625.048-.684-.072-.723-.108-.449-.191-.469-.215-.527-.179-.43-.263-.332-.395-.43-.191-.254-.3-.2-.215-.234h-.227l-.1.273.048.41.167.234.227.273.287.371.275.43.215.488.2.605.12.469v.8l-.072.605-.2.645-.263.43-.443.488-.395.117-.443.039-.048-.117-.395-.039-.311-.156-.251-.41-.263-.312-.2-.41-.167-.508-.072-.645v-.605l.024-.723.12-.469.132-.723.239-.371.024-.508.144-.527.227-.469.191-.41.024-.527-.048-.391L-72.5-54.9l-.251-.234-.287-.078-.443.156-.3.293-.311.352-.251.313-.048.449-.263.391-.251,1.211-.144.762v.762l-.12.762-.06.547.036.762.024.605.167.527.144.547.2.527.287.273.275.527.311.469.3.215.371.234.383.117.467.156.443-.078.467-.117.246-.041-5.484,6.627-.377-.309-.5-.9-.623-.961-.587-1.137L-79.2-42.23l-.474-.906L-80.2-44l-.605-1.109-.276-.44-.179-.492.08-.555.037-.674-.2-.467.024-.482.395-.414.286-.574.719-.937.538-.654.711-.926.157-.682-.217-.316-.318.164-.226.445-.27.1-.473.443-.378.293-.365.475-.556.928-.425.354-.276.06-.26-.185-.207-.58-.336-.686-.322-.781-.276-.814-.213-.748-.373-.637-.239-.613-.077-.75-.134-.65-.067-.639.038-.7.185-1.217.12-.381,0-.293.19-.549.17-.623.2-.49.4-.525.589-.392.7-.707.209-.324.089-.414.025-.51-.123-.439-.227-.277-.28-.135-.268.174-.336-.06-.189-.1-.317.289L-83.6-64.3l-.989.793-.4,0-.473.316-.307.4-.182.537-.12.631.017.629-.136,1-.146.641-.129.643.007.391-.181.287-.093.371-.383.5-.215.654.05.76.343,1.076.2.912.3.432.28,1.01.305.777.4.824,1.2,2.107.37.943,1.177,1.965.553,1,.4.5.412.84.557.67.408.645.575,1.049.579,1.121.848,1.418.572.979.022.547.071.4L-89.067-22.781l-5.91-51.688Zm78.238,32.895-.144.313.191.254.179-.156v-.332Zm-6.821,3.092h.383l.395.078.347.234.311.254.2.352-.048.41-.347.156-.395.156-.443.039h-.407l-.395-.156h-.467l-.275-.039-.167.039-.072-.254.191-.352.179-.156.311-.371.347-.234Zm2.488,7.754-.072.254.132.2.144-.2-.024-.254Zm-9.981,4.889.071.106.237.3.261.23.343.168.762,0,.272.035.4.014.328-.065.266.078.361-.068.233.137.078.01-4.022,4.861-.065-.219.006-.441-.065-.521-.047-.467-.114-.434-.072-.479.011-.541.038-.473-.1-.311.035-.293-.123-.184-.139-.42.038-.473.153-.328.341.086.264-.213Zm-2.6,2.893-.013.459.193.234.126-.4-.057-.244Zm-5.5,2.617-.1.156.156.215.144-.078-.048-.254Z" transform="translate(-218.986 5.594)" fill="#801e00"/>
    <path id="path866" d="M-39.109-37.173v10.338l11.027-2.757Z" transform="translate(-147.414)" fill="#fff"/>
  </g>
</svg>
