<svg xmlns="http://www.w3.org/2000/svg" width="121" height="45" viewBox="0 0 121 45">
  <g id="Group_1" data-name="Group 1" transform="translate(-1135 -610)">
    <g id="runners" transform="translate(1382.196 614.583)">
      <text id="R" transform="translate(-247.196 32.417)" fill="red" font-size="35.27" font-family="ForteMT, Forte"><tspan x="0" y="0">R</tspan></text>
      <text id="R-2" data-name="R" transform="translate(-244.745 31.627)" fill="#ff8c00" stroke="red" stroke-width="0.265" font-size="33" font-family="ForteMT, Forte"><tspan x="0" y="0">R</tspan></text>
      <path id="path837" d="M-224.365,30.61c2.1-2.061,1.617-4.394,5.318-4.316,1.529.611,2.359,1.054,1.256,2.944l-5.7,5.278-3.627-3.942c.743-.259,3.776-6.138,2.1-.422Z" fill="red"/>
      <path id="path839" d="M-241.987,32.232c3.081.151,4.526-1.685,7.119.971.628,1.469.883,2.338-1.356,2.776l-8.13-.622.421-5.087c.73.357,7.409-1.285,1.828,1.206Z" fill="red"/>
    </g>
    <text id="unners" transform="translate(1159 641)" fill="#f51313" font-size="35.27" font-family="ForteMT, Forte"><tspan x="0" y="0">unners</tspan></text>
  </g>
</svg>
