<svg xmlns="http://www.w3.org/2000/svg" width="238.514" height="205.818" viewBox="0 0 238.514 205.818">
  <g id="knits" transform="translate(381.954 53.65)">
    <path id="path2133" d="M-271.524-53.65c-29.063.046-57.494,5.943-82.051,17.044l-2.483,1.1v22.943A144.93,144.93,0,0,0-380.18,3.381l-1.774,1.505V90.6l5.348-5.044A137.99,137.99,0,0,1-341.542,62.08l2.429-1.18V39.707a198.579,198.579,0,0,1,72.119-13.912A195.444,195.444,0,0,1-186.28,43.327V57.036l2.565,1.017a150.046,150.046,0,0,1,35.173,19.973l5.1,3.946V4.8l-1.773-1.5a145.194,145.194,0,0,0-24.149-15.905v-8.3l-.491-.285v-4.963l-2.183-1.342c-27.8-16.922-63.016-26.108-99.488-26.156Zm0,5.207c36.077.048,70.926,9.2,98.178,25.79V-9.514l-.491,52.882,4.066-50.848a141.036,141.036,0,0,1,22.84,15.336V73.389a152.744,152.744,0,0,0-35.855-20.339V52.2l8.95-8.827q-4.519-2.525-9.3-4.8v.162c-24.756-11.767-53.952-18.084-83.853-18.143-26.6.085-52.695,5.125-75.612,14.6q-5.1,2.039-9.96,4.353l9.96,17.573a140.989,140.989,0,0,0-35.855,24.041V7.937A140.6,140.6,0,0,1-355.7-7.44l3.138,46.984V-31.643c24.167-10.925,52.294-16.755,81.042-16.8Z" fill="navy"/>
    <path id="path2113" d="M-30.292-48.75A212.394,212.394,0,0,0-57.31-46.906V8.875A212.44,212.44,0,0,1-30.292,7.063l.489.018V-48.746l-.489,0Zm3.887.1V7.2q4.514.069,9.015.328V-48.24q-4.5-.3-9.015-.408Zm12.414.563V7.748a206.311,206.311,0,0,1,30.743,4.766V-43.352a206.4,206.4,0,0,0-30.743-4.734ZM-60.708-46.5a199.631,199.631,0,0,0-27.506,6.017v55.9A199.683,199.683,0,0,1-60.708,9.414ZM20.15-42.441v55.83a185.856,185.856,0,0,1,24.617,7.994V-34.479A186.032,186.032,0,0,0,20.15-42.441Z" transform="translate(-243.595 5.594)" fill="none"/>
    <g id="text2154" transform="translate(-331.809 -43.152)">
      <path id="path2188" d="M-307.2-34.887v9.529l11.625-2.542L-307.2,6.248V18.513l12.823-37.759,14.683,34.253V2.457L-292.94-28.476l13.246-2.9V-40.9L-307.2-34.887" transform="translate(307.2 43.152)" fill="navy"/>
      <path id="path2190" d="M-261.128-41.313v13.427l23.011,31.171-23.011,1.508v9.675l27.507-1.8V-.764l-23.012-31.173,23.012-1.533v-9.683l-27.507,1.84" transform="translate(292.033 43.152)" fill="navy"/>
      <path id="path2192" d="M-215.056-43.055V12.8l9.015.328V-42.647l-9.015-.408" transform="translate(276.866 43.152)" fill="navy"/>
      <path id="path2194" d="M-196.55-42.492V13.342l3.5.543V-9.547l27.242,4.211v-8.979l-27.242-4.207V-41.953l-3.5-.539" transform="translate(270.773 43.152)" fill="navy"/>
      <path id="path2196" d="M-144.446,14.594l3.131,1.016q-.873-6.393-1.3-11.951t-.429-10.6a63.839,63.839,0,0,1,1.017-13.217q1.017-4.4,2.892-3.792,1.574.509,2.384,3.906a85.336,85.336,0,0,1,1.287,12.425l.4,6.611q.684,12.23,2.416,18.478,1.717,6.3,4.608,7.235,3.449,1.12,5.229-6.062,1.78-7.129,1.78-22.064,0-5.634-.382-12.136-.381-6.448-1.128-13.493l-3.306-1.069q1.1,6.892,1.653,13.343t.556,12.51a65.768,65.768,0,0,1-1.081,13.84q-1.081,4.645-3.083,4-1.749-.567-2.733-4.5a71.722,71.722,0,0,1-1.478-12.223l-.381-6.659q-.715-12.241-2.241-18.1t-4.243-6.739q-3.146-1.018-4.959,5.78-1.811,6.851-1.812,19.865,0,5.578.3,11.466t.906,12.14h0" transform="translate(254.018 43.152)" fill="navy"/>
    </g>
    <ellipse id="path2319" cx="42.823" cy="63.84" rx="42.823" ry="63.84" transform="translate(-303.601 23.489)" fill="#800013" stroke="#fff" stroke-width="2"/>
    <path id="path2321" d="M-179.3,135.791c-22.382-27.8-31.8-66.453-39.554-109.648" transform="translate(-53.694)" fill="none" stroke="#fff" stroke-linecap="round" stroke-width="2"/>
    <path id="path2323" d="M-255.4,51.484c7.826,36.752,18.5,71.219,37.593,98.927" transform="translate(-41.662)" fill="none" stroke="#fff" stroke-linecap="round" stroke-width="2"/>
    <path id="path2325" d="M-252.965,123.121c16.423-51.481,44.329-55.053,71.59-66.764" transform="translate(-42.464)" fill="none" stroke="#fff" stroke-linecap="round" stroke-width="2"/>
    <path id="path2327" d="M-241.756,135.3c23.1-42.625,46.2-41.994,69.3-51.657" transform="translate(-46.154)" fill="none" stroke="#fff" stroke-linecap="round" stroke-width="2"/>
  </g>
</svg>
