<svg xmlns="http://www.w3.org/2000/svg" width="254.506" height="254.507" viewBox="0 0 254.506 254.507">
  <g id="phililions" transform="translate(-154.588 154.725)">
    <g id="g904" transform="translate(131.777 -151.176)">
      <circle id="path862" cx="124.872" cy="124.872" r="124.872" stroke-width="4.762" transform="translate(25.192 -1.168)" stroke="#7c4e52" stroke-linecap="round" stroke-linejoin="round" fill="#d45500"/>
      <path id="path864" d="M34.281,76.281C124.977,110.189,193.823,90.9,257.9,61.29" fill="none" stroke="#7c4e52" stroke-linecap="round" stroke-width="4.762"/>
      <path id="path866" d="M43.746,190.684c80.416-35.6,141.458-15.347,198.271,15.737" fill="none" stroke="#7c4e52" stroke-linecap="square" stroke-width="4.762"/>
      <path id="path868" d="M27.023,122.78c79.662,3.925,139.594,24.9,205.656,13.968,7.705-1.276,34.227-11.921,42.051-12.269" fill="none" stroke="#7c4e52" stroke-linecap="round" stroke-width="4.762"/>
      <path id="path870" d="M68.737,31.565C94.069,95.6,99.385,158.649,70.105,219.989" fill="none" stroke="#7c4e52" stroke-linecap="round" stroke-width="4.762"/>
      <path id="path874" d="M224.786,25.524c-28.1,67.231-33.992,133.424-1.517,197.823" fill="none" stroke="#7c4e52" stroke-linecap="round" stroke-width="4.762"/>
    </g>
    <g id="g914" transform="translate(346.03 -81.342)">
      <path id="path822" d="M-93.545-52.453l-.651,3.635c-.414,3.894-.327,6.671.318,8.588-5.878,3.045-8.311,10.771-5.639,17.9,2.891,7.7,10.648,11.905,17.327,9.4s9.749-10.769,6.858-18.464c-2.782-7.382-10.078-11.6-16.633-9.618Z" transform="translate(0 38.061)" fill="#7c4e52" stroke="#7c4e52" stroke-linecap="round" stroke-linejoin="round" stroke-width="4.762"/>
      <path id="ellipse824" d="M-51.185-53.45l-.568,11.919C-57.562-41.569-63.037-37.3-65.2-31.056c-2.681,7.771.613,15.951,7.357,18.271s14.384-2.1,17.064-9.869-.613-15.952-7.357-18.272a11.242,11.242,0,0,0-1.681-.419c.669-1.9.537-4.7-.347-8.71Z" transform="translate(0 38.061)" fill="#7c4e52" stroke="#7c4e52" stroke-linecap="round" stroke-linejoin="round" stroke-width="4.762"/>
      <path id="ellipse826" d="M-21.15-38.233l-.568,11.913c-4.564-.031-8.865,3.466-10.561,8.587-2.107,6.371.482,13.078,5.781,14.98s11.3-1.72,13.409-8.091-.482-13.077-5.781-14.98a8.531,8.531,0,0,0-.922-.262c.685-1.9.559-4.707-.331-8.751Z" transform="translate(0 38.061)" fill="#7c4e52" stroke="#7c4e52" stroke-linecap="round" stroke-linejoin="round" stroke-width="4.762"/>
      <path id="ellipse828" d="M-124.171-37.518v3.693c.29,4.068.9,6.85,1.95,8.616-4.458,3-6.085,9.177-3.911,14.838,2.564,6.653,9.444,10.293,15.367,8.13s8.646-9.31,6.082-15.964-9.444-10.293-15.367-8.13q-.216.083-.429.176Z" transform="translate(0 38.061)" fill="#7c4e52" stroke="#7c4e52" stroke-linecap="round" stroke-linejoin="round" stroke-width="4.762"/>
      <ellipse id="path832" cx="42.672" cy="29.578" rx="42.672" ry="29.578" stroke-width="4.762" transform="translate(-109.41 33.644)" stroke="#7c4e52" stroke-linecap="round" stroke-linejoin="round" fill="#7c4e52"/>
    </g>
  </g>
</svg>
