
<svg xmlns="http://www.w3.org/2000/svg" width="116.02" height="94.044" viewBox="0 0 116.02 94.044">
    <title>Preloader</title>
    <g id="user" transform="translate(0 -44.455)">
        <path id="path878" transform="translate(0 87)" fill="aqua" stroke="#000" stroke-linecap="round" stroke-linejoin="round" stroke-width="5" stroke-dasharray="18.898 37.795"/>
        <ellipse id="ellipse828" cx="48.683" cy="45.302" rx="48.683" ry="45.302" stroke-width="3.44" transform="translate(16.933 46.175)" stroke="#060606" stroke-linecap="round" stroke-linejoin="round" fill="#f39848">


        </ellipse>
        <path id="path831" d="M64.029,47.5c22.812.436,38.877,24.567,39.158,44.239-.03,22.108-14.884,40.91-39.158,43.719h0a53.032,53.032,0,0,0,19.071-3.5c17.409-6.7,29.613-22.3,29.612-40.477C112.712,67.188,90.916,47.5,64.029,47.5Z" fill="#b95400" >

        </path>
        <path id="path845" d="M25.929,65.225c27.537,22.8,43.663,9.312,48.419,7.408,5.486-2.2,22.49-12.965,28.575-10.848" fill="none" stroke="#000" stroke-linecap="round" stroke-width="2">


        </path>
        <path id="path847" d="M29.1,121.317c6.316-3.065,15.507-18.709,39.8-2.381,13.412,9.015,40.215-.387,39.051-5.027" fill="none" stroke="#000" stroke-linecap="round" stroke-width="2" >


        </path>
        <path id="path851" d="M16.669,89.3c26.036,8.024,49.66,12.487,81.258,8.444,5.466-.7,11.17-1.653,17.167-2.887" fill="none" stroke="#000" stroke-width="2" >


        </path>
        <animate attributeName="opacity"
                 begin="0s" dur="0.5s"
                 values="0;1"
                 calcMode="linear"
                 repeatCount="indefinite" />

    </g>
</svg>