<svg xmlns="http://www.w3.org/2000/svg" width="198.014" height="154.338" viewBox="0 0 198.014 154.338">
  <g id="s67ers" transform="translate(381.955 63.743)">
    <path id="path2133" d="M-40.166-62.494v5.6C-21.7-50.306-4.489-39.03,10.217-28.248v13.141L9.809,37.773l3.375-50.848A118.4,118.4,0,0,1,32.145,2.262V67.795A123.219,123.219,0,0,0,2.379,47.455V46.6l7.43-8.828q-3.751-2.525-7.725-4.8v.162c-9.459-5.416-19.948-4.548-30.929-2.06V35.8c9.97-2.27,19.508-2.958,28.324,1.93V51.441l2.129,1.018a121.09,121.09,0,0,1,29.2,19.973l4.237,3.947V-.789L33.572-2.295A121.271,121.271,0,0,0,13.524-18.2v-8.3l-.408-.285v-4.963L11.3-33.088C-3.642-44.047-21.332-55.655-40.166-62.494Zm-65.054,1.443c-11.793,5.385-22.957,12.736-34.189,18.852l-2.061,1.1v22.943C-147.6-9.786-154.134-3.6-161.5-2.213l-1.473,1.506V85l4.441-5.045a115.846,115.846,0,0,1,29.109-23.471l2.016-1.18c-5.2-12.2-5.035-19.1,0-21.193,10.6-5.061,21.832-.893,33.5,3.475V33.27c-12.695-4.628-24.829-9.439-36.4-3.672q-4.233,2.039-8.268,4.351v0l8.268,17.572a118.4,118.4,0,0,0-29.766,24.041V2.344c6.565-1.526,13.093-5.8,18.893-15.377l2.605,46.982V-37.236c10.307-5.612,21.586-12.141,33.351-17.182Z" transform="translate(-218.986 5.594)" fill="#118000"/>
    <g id="text850" transform="matrix(0.978, -0.21, 0.21, 0.978, -334.628, -51.873)">
      <path id="path852" d="M15.735,39.73q-4.681-.014-8.507,6.443-3.791,6.457-5.66,17.718Q-.288,75.082,1.347,81.624,3.028,88.1,7.708,88.11t8.472-6.443q3.837-6.526,5.694-17.718,1.868-11.261.187-17.734-1.646-6.473-6.327-6.486Zm21.1-43.962L32.257,15.432c-1.467-1.673-2.285-4.557-3.929-5.443-1.621-.886-3.217.1-4.961.092-4.589-.013-6.984-3.593-10.454,2.656Q7.743,22.111,4.078,41.086a30.509,30.509,0,0,1,6.628-9.23q3.605-3.258,7.288-3.248,7.744.022,10.638,9.559,2.94,9.467.23,25.8-2.652,15.988-8.936,25.637T5.863,99.233q-8.914-.026-11.346-13.8Q-7.9,71.583-3.555,45.376.527,20.769,8.731,6.188C7.248-6.285,18.51-1.234,25.471-.942a14.029,14.029,0,0,1,5.353.761C33.318,1.227,33.555.838,35.13,2.8Z" transform="translate(0)" fill="#118000"/>
      <path id="path854" d="M-1.955,21.078l33.132-26L33.31,3.124l-8.1,93.724-7.282,5.714,6.311-90.984L-.5,30.995Z" transform="translate(43.675 11.264)" fill="#118000"/>
      <text id="ers" transform="matrix(0.978, 0.21, -0.21, 0.978, 29.26, 68.778)" fill="#118000" font-size="20" font-family="SegoeUI, Segoe UI"><tspan x="0" y="0">ers</tspan></text>
    </g>
  </g>
</svg>
